<?xml version="1.0" encoding="UTF-8" standalone="no"?>
<!DOCTYPE svg PUBLIC "-//W3C//DTD SVG 1.1//EN" "http://www.w3.org/Graphics/SVG/1.1/DTD/svg11.dtd">
<svg width="100%" height="100%" viewBox="0 0 638 259" version="1.1" xmlns="http://www.w3.org/2000/svg" xmlns:xlink="http://www.w3.org/1999/xlink" xml:space="preserve" xmlns:serif="http://www.serif.com/" style="fill-rule:evenodd;clip-rule:evenodd;stroke-linejoin:round;stroke-miterlimit:2;">
    <g transform="matrix(2.40174,0,0,2.75677,-1904.77,-2898.21)">
        <path d="M862.407,1106.86C860.84,1098.63 860.262,1090.47 867.407,1084.11C875.335,1077.05 890.407,1080.86 890.407,1080.86C890.407,1080.86 891.157,1076.61 894.657,1077.36L898.157,1078.11C898.157,1078.11 893.157,1072.61 900.407,1068.61C907.657,1064.61 916.407,1068.61 916.407,1072.36L916.407,1076.11C916.407,1076.11 917.657,1072.11 921.157,1069.61L924.657,1067.11C924.657,1067.11 919.407,1061.36 923.407,1055.11C927.407,1048.86 935.407,1050.86 935.907,1057.11C936.407,1063.36 933.657,1067.61 933.657,1067.61C933.657,1067.61 943.157,1069.86 942.907,1076.11C942.657,1082.36 937.907,1084.11 937.907,1084.11C937.907,1084.11 940.157,1085.36 938.407,1090.36L936.657,1095.36C936.657,1095.36 941.657,1092.36 945.157,1099.11C948.657,1105.86 949.475,1107.44 949.475,1107.44C949.475,1107.44 949.407,1103.61 955.657,1106.86L961.907,1110.11L963.907,1105.61C963.907,1105.61 964.407,1095.36 969.157,1096.11C973.907,1096.86 975.32,1097.08 975.32,1097.08C975.32,1097.08 978.407,1093.36 982.657,1097.36L986.907,1101.36C986.907,1101.36 994.15,1097.11 997.4,1101.36L1000.65,1105.61C1000.65,1105.61 1010.4,1095.86 1021.15,1101.61C1031.9,1107.36 1033.57,1108.26 1033.57,1108.26C1033.57,1108.26 1035.65,1102.11 1040.9,1106.61C1046.15,1111.11 1046.81,1111.67 1046.81,1111.67C1046.81,1111.67 1066.9,1116.61 1055.4,1117.61C1043.9,1118.61 1029.2,1119.89 1029.2,1119.89C1029.2,1119.89 1024.65,1123.86 1020.15,1126.61C1015.65,1129.36 1003.9,1137.61 995.9,1133.86C987.9,1130.11 985.902,1129.17 985.902,1129.17C985.902,1129.17 988.9,1137.86 976.15,1136.61C963.4,1135.36 954.65,1138.86 948.4,1136.11C942.15,1133.36 935.783,1130.56 935.783,1130.56C935.783,1130.56 933.72,1145.65 918.4,1145.61C904.999,1145.57 899.15,1140.86 899.15,1140.86C899.15,1140.86 888.757,1145.53 882.15,1144.11C866.666,1140.78 863.4,1132.11 863.4,1132.11C863.4,1132.11 861.126,1136.37 856.531,1136.37C852.012,1136.37 851.014,1133.61 848.881,1133.61C841.881,1133.61 825.881,1138.11 819.131,1136.86C812.381,1135.61 793.881,1132.61 793.131,1124.61C792.381,1116.61 799.881,1113.11 799.881,1113.11C799.881,1113.11 799.881,1104.61 810.381,1106.61C820.881,1108.61 831.576,1110.65 831.576,1110.65C831.576,1110.65 829.881,1106.36 838.631,1107.36C847.381,1108.36 854.622,1109.19 854.622,1109.19C854.622,1109.19 857.684,1105.36 862.407,1106.86" style="fill:rgb(26,60,98);"/>
        <clipPath id="_clip1">
            <path d="M862.407,1106.86C860.84,1098.63 860.262,1090.47 867.407,1084.11C875.335,1077.05 890.407,1080.86 890.407,1080.86C890.407,1080.86 891.157,1076.61 894.657,1077.36L898.157,1078.11C898.157,1078.11 893.157,1072.61 900.407,1068.61C907.657,1064.61 916.407,1068.61 916.407,1072.36L916.407,1076.11C916.407,1076.11 917.657,1072.11 921.157,1069.61L924.657,1067.11C924.657,1067.11 919.407,1061.36 923.407,1055.11C927.407,1048.86 935.407,1050.86 935.907,1057.11C936.407,1063.36 933.657,1067.61 933.657,1067.61C933.657,1067.61 943.157,1069.86 942.907,1076.11C942.657,1082.36 937.907,1084.11 937.907,1084.11C937.907,1084.11 940.157,1085.36 938.407,1090.36L936.657,1095.36C936.657,1095.36 941.657,1092.36 945.157,1099.11C948.657,1105.86 949.475,1107.44 949.475,1107.44C949.475,1107.44 949.407,1103.61 955.657,1106.86L961.907,1110.11L963.907,1105.61C963.907,1105.61 964.407,1095.36 969.157,1096.11C973.907,1096.86 975.32,1097.08 975.32,1097.08C975.32,1097.08 978.407,1093.36 982.657,1097.36L986.907,1101.36C986.907,1101.36 994.15,1097.11 997.4,1101.36L1000.65,1105.61C1000.65,1105.61 1010.4,1095.86 1021.15,1101.61C1031.9,1107.36 1033.57,1108.26 1033.57,1108.26C1033.57,1108.26 1035.65,1102.11 1040.9,1106.61C1046.15,1111.11 1046.81,1111.67 1046.81,1111.67C1046.81,1111.67 1066.9,1116.61 1055.4,1117.61C1043.9,1118.61 1029.2,1119.89 1029.2,1119.89C1029.2,1119.89 1024.65,1123.86 1020.15,1126.61C1015.65,1129.36 1003.9,1137.61 995.9,1133.86C987.9,1130.11 985.902,1129.17 985.902,1129.17C985.902,1129.17 988.9,1137.86 976.15,1136.61C963.4,1135.36 954.65,1138.86 948.4,1136.11C942.15,1133.36 935.783,1130.56 935.783,1130.56C935.783,1130.56 933.72,1145.65 918.4,1145.61C904.999,1145.57 899.15,1140.86 899.15,1140.86C899.15,1140.86 888.757,1145.53 882.15,1144.11C866.666,1140.78 863.4,1132.11 863.4,1132.11C863.4,1132.11 861.126,1136.37 856.531,1136.37C852.012,1136.37 851.014,1133.61 848.881,1133.61C841.881,1133.61 825.881,1138.11 819.131,1136.86C812.381,1135.61 793.881,1132.61 793.131,1124.61C792.381,1116.61 799.881,1113.11 799.881,1113.11C799.881,1113.11 799.881,1104.61 810.381,1106.61C820.881,1108.61 831.576,1110.65 831.576,1110.65C831.576,1110.65 829.881,1106.36 838.631,1107.36C847.381,1108.36 854.622,1109.19 854.622,1109.19C854.622,1109.19 857.684,1105.36 862.407,1106.86"/>
        </clipPath>
        <g clip-path="url(#_clip1)">
            <g transform="matrix(0.416365,0,0,0.362743,188.48,936.263)">
                <path d="M1619.86,469.738C1618.33,469.449 1617.25,465.772 1616.56,460.995C1615.36,452.707 1615.37,441.174 1615.71,438.467C1616.38,433.829 1617.71,429.044 1619.8,424.443C1621.79,420.093 1624.43,415.903 1627.57,412.086C1633.7,404.641 1641.79,398.64 1651.1,395.514C1651.52,395.361 1651.98,395.577 1652.13,395.996C1652.29,396.416 1652.07,396.881 1651.65,397.034C1642.92,400.482 1635.62,406.704 1630,414.017C1627.14,417.733 1624.75,421.744 1622.81,425.841C1620.77,430.16 1619.19,434.56 1618.37,438.91C1617.83,441.519 1617.03,452.74 1617.48,460.904C1617.74,465.621 1618.39,469.311 1619.86,469.738Z" style="fill:rgb(63,154,191);"/>
            </g>
            <g transform="matrix(0.416365,0,0,0.362743,188.48,936.263)">
                <path d="M1703.25,500.935C1701.62,501.018 1699.79,500.361 1697.99,499.402C1695.38,498.012 1692.88,495.987 1691.19,494.678C1689.67,493.499 1688.21,492.215 1686.87,490.809C1685.51,489.38 1684.3,487.827 1683.26,486.169C1681.61,483.502 1679.76,478.938 1679.39,474.646C1679.11,471.384 1679.76,468.304 1681.6,466.15C1682.69,464.908 1684.21,464.025 1685.91,463.46C1688.15,462.715 1690.7,462.51 1692.72,462.485C1697.58,462.483 1704.71,463.658 1710.34,466.574C1714.3,468.625 1717.51,471.51 1718.78,475.324C1718.93,475.743 1718.72,476.209 1718.3,476.363C1717.88,476.517 1717.42,476.302 1717.26,475.883C1715.93,472.599 1712.9,470.309 1709.31,468.696C1703.95,466.279 1697.3,465.451 1692.8,465.664C1691.07,465.725 1688.89,465.948 1686.98,466.607C1685.85,466.994 1684.81,467.521 1684.09,468.344C1682.71,469.855 1682.38,472.101 1682.46,474.46C1682.6,478.328 1683.94,482.529 1685.26,485.019C1686.11,486.629 1687.14,488.144 1688.28,489.574C1689.45,491.026 1690.72,492.391 1692.06,493.651C1693.6,495.092 1695.86,497.308 1698.28,498.922C1699.93,500.031 1701.65,500.854 1703.25,500.935Z" style="fill:rgb(63,154,191);"/>
            </g>
            <g transform="matrix(0.416365,0,0,0.362743,188.48,936.263)">
                <path d="M1544.4,479.929C1544.14,476.278 1545.26,473.984 1547,472.506C1549.04,470.773 1551.97,470.213 1554.84,470.034C1557.67,469.897 1561.07,470.051 1564.59,470.392C1566.51,470.577 1568.45,470.806 1570.34,471.081C1573.41,471.527 1576.34,472.078 1578.82,472.403C1583.61,473.154 1588.35,474.181 1593.13,474.96C1595.16,475.29 1597.19,475.589 1599.24,475.775C1599.68,475.795 1600.03,476.174 1600.01,476.62C1599.99,477.066 1599.61,477.412 1599.16,477.391C1597.06,477.39 1594.96,477.293 1592.87,477.12C1588.05,476.722 1583.26,475.972 1578.44,475.551C1575.66,475.228 1572.32,474.774 1568.89,474.194C1565.72,473.658 1562.49,473.022 1559.51,472.613C1557.84,472.385 1556.27,472.19 1554.84,472.116C1552.3,471.958 1549.65,472.103 1547.66,473.39C1545.88,474.538 1544.64,476.538 1544.4,479.929Z" style="fill:rgb(63,154,191);"/>
            </g>
            <g transform="matrix(0.131791,-0.344092,0.394956,0.114818,413.324,1580.84)">
                <path d="M1469.43,487.523C1469.26,487.532 1469.11,487.353 1468.99,487.103C1468.76,486.628 1468.62,485.893 1468.57,485.702C1468.38,484.942 1468.36,484.088 1468.44,483.219C1468.57,481.939 1468.94,480.64 1469.35,479.59C1470.73,476.147 1475.04,470.145 1482.82,466.689C1487.73,464.51 1494.01,463.431 1501.68,464.495C1504.88,465.048 1509.27,467.732 1513.23,469.302C1514.82,469.93 1516.31,470.403 1517.61,470.275C1523.56,469.735 1528.9,469.711 1532.36,470.811C1535.2,471.711 1536.88,473.31 1536.97,475.772C1537,476.217 1536.67,476.604 1536.22,476.636C1535.78,476.667 1535.39,476.331 1535.36,475.886C1535.13,473.665 1532.99,472.784 1529.92,472.441C1526.72,472.083 1522.52,472.427 1517.95,473.104C1516.26,473.343 1514.25,472.929 1512.15,472.171C1508.35,470.803 1504.19,468.233 1501.15,467.772C1494.15,466.467 1488.38,467.274 1483.74,468.971C1476.25,471.715 1471.69,476.837 1470.12,479.94C1469.63,480.894 1469.15,482.088 1468.9,483.289C1468.74,484.105 1468.67,484.918 1468.79,485.659C1468.82,485.851 1468.88,486.588 1469.05,487.078C1469.14,487.329 1469.26,487.514 1469.43,487.523Z" style="fill:rgb(63,154,191);"/>
            </g>
            <g transform="matrix(0.416365,0,0,0.362743,188.48,936.263)">
                <path d="M1710.54,468.644C1710.35,463.637 1709.08,458.735 1709.45,454.033C1709.7,450.837 1710.71,447.752 1713.23,444.781C1717.38,439.928 1723.25,437.688 1729.61,437.165C1734.94,436.725 1740.62,437.496 1745.85,438.916C1749.56,439.926 1753.04,441.298 1756.03,442.703C1762.12,445.646 1765.92,449.921 1766.81,454.568C1767.69,459.193 1765.78,464.3 1760.12,468.884C1758.59,470.12 1756.91,471.208 1755.15,472.192C1752.59,473.627 1749.88,474.852 1747.29,476.067C1746.89,476.267 1746.4,476.105 1746.2,475.705C1746,475.306 1746.17,474.819 1746.57,474.62C1749.05,473.3 1751.65,471.962 1754.11,470.433C1755.71,469.432 1757.25,468.348 1758.64,467.124C1763.18,463.141 1764.81,458.967 1763.96,455.159C1763.1,451.329 1759.75,447.99 1754.64,445.673C1751.79,444.346 1748.47,443.117 1744.95,442.104C1740.07,440.695 1734.79,439.749 1729.77,439.933C1723.99,440.144 1718.55,441.782 1714.53,445.962C1712.06,448.509 1710.97,451.265 1710.53,454.158C1709.83,458.768 1710.73,463.693 1710.54,468.644Z" style="fill:rgb(63,154,191);"/>
            </g>
        </g>
    </g>
</svg>
